<svg width="680" height="1280" viewBox="0 0 680 1280" fill="none" xmlns="http://www.w3.org/2000/svg">
<g clip-path="url(#clip0_2_491)">
<rect width="680" height="1280" fill="#2E2E33"/>
<rect width="120" height="60" transform="translate(-94 68)" fill="#B9B8B6"/>
<rect width="120" height="60" transform="translate(30 68)" fill="#B9B8B6"/>
<rect width="120" height="60" transform="translate(154 68)" fill="#B9B8B6"/>
<rect width="120" height="60" transform="translate(278 68)" fill="#B9B8B6"/>
<rect width="120" height="60" transform="translate(402 68)" fill="#B9B8B6"/>
<rect width="120" height="60" transform="translate(526 68)" fill="#B9B8B6"/>
<rect width="120" height="60" transform="translate(650 68)" fill="#B9B8B6"/>
<rect width="120" height="60" transform="translate(-30 4)" fill="#B9B8B6"/>
<rect width="120" height="60" transform="translate(94 4)" fill="#B9B8B6"/>
<rect width="120" height="60" transform="translate(218 4)" fill="#B9B8B6"/>
<rect width="120" height="60" transform="translate(342 4)" fill="#B9B8B6"/>
<rect width="120" height="60" transform="translate(466 4)" fill="#B9B8B6"/>
<rect width="120" height="60" transform="translate(590 4)" fill="#B9B8B6"/>
<rect width="120" height="60" transform="translate(-94 196)" fill="#B9B8B6"/>
<rect width="120" height="60" transform="translate(30 196)" fill="#B9B8B6"/>
<rect width="120" height="60" transform="translate(154 196)" fill="#B9B8B6"/>
<rect width="120" height="60" transform="translate(278 196)" fill="#B9B8B6"/>
<rect width="120" height="60" transform="translate(402 196)" fill="#B9B8B6"/>
<rect width="120" height="60" transform="translate(526 196)" fill="#B9B8B6"/>
<rect width="120" height="60" transform="translate(650 196)" fill="#B9B8B6"/>
<rect width="120" height="60" transform="translate(-30 132)" fill="#B9B8B6"/>
<rect width="120" height="60" transform="translate(94 132)" fill="#B9B8B6"/>
<rect width="120" height="60" transform="translate(218 132)" fill="#B9B8B6"/>
<rect width="120" height="60" transform="translate(342 132)" fill="#B9B8B6"/>
<rect width="120" height="60" transform="translate(466 132)" fill="#B9B8B6"/>
<rect width="120" height="60" transform="translate(590 132)" fill="#B9B8B6"/>
<rect width="120" height="60" transform="translate(-94 324)" fill="#B9B8B6"/>
<rect width="120" height="60" transform="translate(30 324)" fill="#B9B8B6"/>
<rect width="120" height="60" transform="translate(154 324)" fill="#B9B8B6"/>
<rect width="120" height="60" transform="translate(278 324)" fill="#B9B8B6"/>
<rect width="120" height="60" transform="translate(402 324)" fill="#B9B8B6"/>
<rect width="120" height="60" transform="translate(526 324)" fill="#B9B8B6"/>
<rect width="120" height="60" transform="translate(650 324)" fill="#B9B8B6"/>
<rect width="120" height="60" transform="translate(-30 260)" fill="#B9B8B6"/>
<rect width="120" height="60" transform="translate(94 260)" fill="#B9B8B6"/>
<rect width="120" height="60" transform="translate(218 260)" fill="#B9B8B6"/>
<rect width="120" height="60" transform="translate(342 260)" fill="#B9B8B6"/>
<rect width="120" height="60" transform="translate(466 260)" fill="#B9B8B6"/>
<rect width="120" height="60" transform="translate(590 260)" fill="#B9B8B6"/>
<rect width="120" height="60" transform="translate(-94 452)" fill="#B9B8B6"/>
<rect width="120" height="60" transform="translate(30 452)" fill="#B9B8B6"/>
<rect width="120" height="60" transform="translate(154 452)" fill="#B9B8B6"/>
<rect width="120" height="60" transform="translate(278 452)" fill="#B9B8B6"/>
<rect width="120" height="60" transform="translate(402 452)" fill="#B9B8B6"/>
<rect width="120" height="60" transform="translate(526 452)" fill="#B9B8B6"/>
<rect width="120" height="60" transform="translate(650 452)" fill="#B9B8B6"/>
<rect width="120" height="60" transform="translate(-30 388)" fill="#B9B8B6"/>
<rect width="120" height="60" transform="translate(94 388)" fill="#B9B8B6"/>
<rect width="120" height="60" transform="translate(218 388)" fill="#B9B8B6"/>
<rect width="120" height="60" transform="translate(342 388)" fill="#B9B8B6"/>
<rect width="120" height="60" transform="translate(466 388)" fill="#B9B8B6"/>
<rect width="120" height="60" transform="translate(590 388)" fill="#B9B8B6"/>
<rect width="120" height="60" transform="translate(-94 580)" fill="#B9B8B6"/>
<rect width="120" height="60" transform="translate(30 580)" fill="#B9B8B6"/>
<rect width="120" height="60" transform="translate(154 580)" fill="#B9B8B6"/>
<rect width="120" height="60" transform="translate(278 580)" fill="#B9B8B6"/>
<rect width="120" height="60" transform="translate(402 580)" fill="#B9B8B6"/>
<rect width="120" height="60" transform="translate(526 580)" fill="#B9B8B6"/>
<rect width="120" height="60" transform="translate(650 580)" fill="#B9B8B6"/>
<rect width="120" height="60" transform="translate(-30 516)" fill="#B9B8B6"/>
<rect width="120" height="60" transform="translate(94 516)" fill="#B9B8B6"/>
<rect width="120" height="60" transform="translate(218 516)" fill="#B9B8B6"/>
<rect width="120" height="60" transform="translate(342 516)" fill="#B9B8B6"/>
<rect width="120" height="60" transform="translate(466 516)" fill="#B9B8B6"/>
<rect width="120" height="60" transform="translate(590 516)" fill="#B9B8B6"/>
<rect width="120" height="60" transform="translate(-94 708)" fill="#B9B8B6"/>
<rect width="120" height="60" transform="translate(30 708)" fill="#B9B8B6"/>
<rect width="120" height="60" transform="translate(154 708)" fill="#B9B8B6"/>
<rect width="120" height="60" transform="translate(278 708)" fill="#B9B8B6"/>
<rect width="120" height="60" transform="translate(402 708)" fill="#B9B8B6"/>
<rect width="120" height="60" transform="translate(526 708)" fill="#B9B8B6"/>
<rect width="120" height="60" transform="translate(650 708)" fill="#B9B8B6"/>
<rect width="120" height="60" transform="translate(-30 644)" fill="#B9B8B6"/>
<rect width="120" height="60" transform="translate(94 644)" fill="#B9B8B6"/>
<rect width="120" height="60" transform="translate(218 644)" fill="#B9B8B6"/>
<rect width="120" height="60" transform="translate(342 644)" fill="#B9B8B6"/>
<rect width="120" height="60" transform="translate(466 644)" fill="#B9B8B6"/>
<rect width="120" height="60" transform="translate(590 644)" fill="#B9B8B6"/>
<rect width="120" height="60" transform="translate(-94 836)" fill="#B9B8B6"/>
<rect width="120" height="60" transform="translate(30 836)" fill="#B9B8B6"/>
<rect width="120" height="60" transform="translate(154 836)" fill="#B9B8B6"/>
<rect width="120" height="60" transform="translate(278 836)" fill="#B9B8B6"/>
<rect width="120" height="60" transform="translate(402 836)" fill="#B9B8B6"/>
<rect width="120" height="60" transform="translate(526 836)" fill="#B9B8B6"/>
<rect width="120" height="60" transform="translate(650 836)" fill="#B9B8B6"/>
<rect width="120" height="60" transform="translate(-30 772)" fill="#B9B8B6"/>
<rect width="120" height="60" transform="translate(94 772)" fill="#B9B8B6"/>
<rect width="120" height="60" transform="translate(218 772)" fill="#B9B8B6"/>
<rect width="120" height="60" transform="translate(342 772)" fill="#B9B8B6"/>
<rect width="120" height="60" transform="translate(466 772)" fill="#B9B8B6"/>
<rect width="120" height="60" transform="translate(590 772)" fill="#B9B8B6"/>
<rect width="120" height="60" transform="translate(-94 964)" fill="#B9B8B6"/>
<rect width="120" height="60" transform="translate(30 964)" fill="#B9B8B6"/>
<rect width="120" height="60" transform="translate(154 964)" fill="#B9B8B6"/>
<rect width="120" height="60" transform="translate(278 964)" fill="#B9B8B6"/>
<rect width="120" height="60" transform="translate(402 964)" fill="#B9B8B6"/>
<rect width="120" height="60" transform="translate(526 964)" fill="#B9B8B6"/>
<rect width="120" height="60" transform="translate(650 964)" fill="#B9B8B6"/>
<rect width="120" height="60" transform="translate(-30 900)" fill="#B9B8B6"/>
<rect width="120" height="60" transform="translate(94 900)" fill="#B9B8B6"/>
<rect width="120" height="60" transform="translate(218 900)" fill="#B9B8B6"/>
<rect width="120" height="60" transform="translate(342 900)" fill="#B9B8B6"/>
<rect width="120" height="60" transform="translate(466 900)" fill="#B9B8B6"/>
<rect width="120" height="60" transform="translate(590 900)" fill="#B9B8B6"/>
<rect width="120" height="60" transform="translate(-94 1092)" fill="#B9B8B6"/>
<rect width="120" height="60" transform="translate(30 1092)" fill="#B9B8B6"/>
<rect width="120" height="60" transform="translate(154 1092)" fill="#B9B8B6"/>
<rect width="120" height="60" transform="translate(278 1092)" fill="#B9B8B6"/>
<rect width="120" height="60" transform="translate(402 1092)" fill="#B9B8B6"/>
<rect width="120" height="60" transform="translate(526 1092)" fill="#B9B8B6"/>
<rect width="120" height="60" transform="translate(650 1092)" fill="#B9B8B6"/>
<rect width="120" height="60" transform="translate(-30 1028)" fill="#B9B8B6"/>
<rect width="120" height="60" transform="translate(94 1028)" fill="#B9B8B6"/>
<rect width="120" height="60" transform="translate(218 1028)" fill="#B9B8B6"/>
<rect width="120" height="60" transform="translate(342 1028)" fill="#B9B8B6"/>
<rect width="120" height="60" transform="translate(466 1028)" fill="#B9B8B6"/>
<rect width="120" height="60" transform="translate(590 1028)" fill="#B9B8B6"/>
<rect width="120" height="60" transform="translate(-94 1220)" fill="#B9B8B6"/>
<rect width="120" height="60" transform="translate(30 1220)" fill="#B9B8B6"/>
<rect width="120" height="60" transform="translate(154 1220)" fill="#B9B8B6"/>
<rect width="120" height="60" transform="translate(278 1220)" fill="#B9B8B6"/>
<rect width="120" height="60" transform="translate(402 1220)" fill="#B9B8B6"/>
<rect width="120" height="60" transform="translate(526 1220)" fill="#B9B8B6"/>
<rect width="120" height="60" transform="translate(650 1220)" fill="#B9B8B6"/>
<rect width="120" height="60" transform="translate(-30 1156)" fill="#B9B8B6"/>
<rect width="120" height="60" transform="translate(94 1156)" fill="#B9B8B6"/>
<rect width="120" height="60" transform="translate(218 1156)" fill="#B9B8B6"/>
<rect width="120" height="60" transform="translate(342 1156)" fill="#B9B8B6"/>
<rect width="120" height="60" transform="translate(466 1156)" fill="#B9B8B6"/>
<rect width="120" height="60" transform="translate(590 1156)" fill="#B9B8B6"/>
</g>
<defs>
<clipPath id="clip0_2_491">
<rect width="680" height="1280" fill="white"/>
</clipPath>
</defs>
</svg>
