<svg width="12" height="14" viewBox="0 0 12 14" fill="none" xmlns="http://www.w3.org/2000/svg">
<path d="M11.7099 7.71C11.617 7.61627 11.5064 7.54188 11.3845 7.49111C11.2627 7.44034 11.1319 7.4142 10.9999 7.4142C10.8679 7.4142 10.7372 7.44034 10.6154 7.49111C10.4935 7.54188 10.3829 7.61627 10.2899 7.71L6.99994 11V1C6.99994 0.734784 6.89458 0.48043 6.70704 0.292893C6.51951 0.105357 6.26515 0 5.99994 0C5.73472 0 5.48037 0.105357 5.29283 0.292893C5.10529 0.48043 4.99994 0.734784 4.99994 1V11L1.70994 7.71C1.61697 7.61627 1.50637 7.54188 1.38451 7.49111C1.26266 7.44034 1.13195 7.4142 0.999938 7.4142C0.867926 7.4142 0.73722 7.44034 0.615361 7.49111C0.493502 7.54188 0.382901 7.61627 0.289938 7.71C0.103687 7.89736 -0.000854492 8.15082 -0.000854492 8.415C-0.000854492 8.67919 0.103687 8.93264 0.289938 9.12L4.58994 13.41C4.96329 13.7856 5.47036 13.9978 5.99994 14C6.52604 13.9951 7.02904 13.7832 7.39994 13.41L11.6999 9.12C11.8875 8.93396 11.9939 8.68125 11.9957 8.41706C11.9976 8.15288 11.8949 7.89868 11.7099 7.71Z" fill="#374957"/>
</svg>
