<svg width="20" height="20" viewBox="0 0 20 20" fill="none" xmlns="http://www.w3.org/2000/svg">
<path d="M20 10C20 15.5228 15.5228 20 10 20C4.47715 20 0 15.5228 0 10C0 4.47715 4.47715 0 10 0C15.5228 0 20 4.47715 20 10Z" fill="white"/>
<path d="M15.9336 10.287C16.5524 9.77134 16.636 8.85177 16.1204 8.23303C15.6047 7.61429 14.6852 7.53069 14.0664 8.04631L10 11.435L5.93364 8.04631C5.3149 7.53069 4.39533 7.61429 3.87971 8.23303C3.3641 8.85177 3.4477 9.77134 4.06643 10.287L9.0468 14.4373C9.14733 14.5243 9.25753 14.5956 9.37393 14.6508C9.5725 14.7453 9.78667 14.7918 10 14.7917C10.2134 14.7918 10.4276 14.7453 10.6262 14.6508C10.7426 14.5955 10.8528 14.5243 10.9533 14.4373L15.9336 10.287Z" fill="black"/>
</svg>
