<svg width="25" height="24" viewBox="0 0 25 24" fill="none" xmlns="http://www.w3.org/2000/svg">
<g clip-path="url(#clip0_8_2077)">
<path d="M13.838 0.833116C13.4707 0.502553 12.9941 0.319641 12.5 0.319641C12.0059 0.319641 11.5293 0.502553 11.162 0.833116L0.5 10.4291V20.8291C0.5 21.6778 0.837142 22.4917 1.43726 23.0919C2.03737 23.692 2.85131 24.0291 3.7 24.0291H21.3C22.1487 24.0291 22.9626 23.692 23.5627 23.0919C24.1629 22.4917 24.5 21.6778 24.5 20.8291V10.4291L13.838 0.833116ZM15.5 22.0261H9.5V17.0001C9.5 16.2045 9.81607 15.4414 10.3787 14.8788C10.9413 14.3162 11.7044 14.0001 12.5 14.0001C13.2956 14.0001 14.0587 14.3162 14.6213 14.8788C15.1839 15.4414 15.5 16.2045 15.5 17.0001V22.0261ZM22.5 20.8261C22.5 21.1444 22.3736 21.4496 22.1485 21.6746C21.9235 21.8997 21.6183 22.0261 21.3 22.0261H17.5V17.0001C17.5 15.674 16.9732 14.4023 16.0355 13.4646C15.0979 12.5269 13.8261 12.0001 12.5 12.0001C11.1739 12.0001 9.90215 12.5269 8.96447 13.4646C8.02678 14.4023 7.5 15.674 7.5 17.0001V22.0261H3.7C3.38174 22.0261 3.07652 21.8997 2.85147 21.6746C2.62643 21.4496 2.5 21.1444 2.5 20.8261V11.3191L12.5 2.31912L22.5 11.3191V20.8261Z" fill="white"/>
</g>
<defs>
<clipPath id="clip0_8_2077">
<rect width="24" height="24" fill="white" transform="translate(0.5)"/>
</clipPath>
</defs>
</svg>
