<svg width="198" height="69" viewBox="0 0 198 69" fill="none" xmlns="http://www.w3.org/2000/svg">
<path fill-rule="evenodd" clip-rule="evenodd" d="M21 0C16.5817 0 13 3.58172 13 8V38.2679C13 39.3397 12.4282 40.3301 11.5 40.866L2.5 46.0622C0.5 47.2169 0.5 50.1036 2.5 51.2583L11.5 56.4545C12.4282 56.9904 13 57.9808 13 59.0526V60C13 64.4183 16.5817 68 21 68H189C193.418 68 197 64.4183 197 60V8C197 3.58172 193.418 0 189 0H21Z" fill="white"/>
<mask id="mask0_81_1497" style="mask-type:luminance" maskUnits="userSpaceOnUse" x="1" y="0" width="196" height="68">
<path fill-rule="evenodd" clip-rule="evenodd" d="M21 0C16.5817 0 13 3.58172 13 8V38.2679C13 39.3397 12.4282 40.3301 11.5 40.866L2.5 46.0622C0.5 47.2169 0.5 50.1036 2.5 51.2583L11.5 56.4545C12.4282 56.9904 13 57.9808 13 59.0526V60C13 64.4183 16.5817 68 21 68H189C193.418 68 197 64.4183 197 60V8C197 3.58172 193.418 0 189 0H21Z" fill="white"/>
</mask>
<g mask="url(#mask0_81_1497)">
<path d="M14 8C14 4.13401 17.134 1 21 1V-1C16.0294 -1 12 3.02944 12 8H14ZM14 38.2679V8H12V38.2679H14ZM3 46.9282L12 41.7321L11 40L2 45.1962L3 46.9282ZM12 55.5885L3 50.3923L2 52.1244L11 57.3205L12 55.5885ZM14 60V59.0526H12V60H14ZM21 67C17.134 67 14 63.866 14 60H12C12 64.9706 16.0294 69 21 69V67ZM189 67H21V69H189V67ZM196 60C196 63.866 192.866 67 189 67V69C193.971 69 198 64.9706 198 60H196ZM196 8V60H198V8H196ZM189 1C192.866 1 196 4.13401 196 8H198C198 3.02944 193.971 -1 189 -1V1ZM21 1H189V-1H21V1ZM11 57.3205C11.6188 57.6778 12 58.338 12 59.0526H14C14 57.6235 13.2376 56.303 12 55.5885L11 57.3205ZM2 45.1962C-0.666671 46.7358 -0.666661 50.5848 2 52.1244L3 50.3923C1.66667 49.6225 1.66667 47.698 3 46.9282L2 45.1962ZM12 38.2679C12 38.9825 11.6188 39.6427 11 40L12 41.7321C13.2376 41.0175 14 39.697 14 38.2679H12Z" fill="black"/>
</g>
</svg>
