<svg width="296" height="484" viewBox="0 0 296 484" fill="none" xmlns="http://www.w3.org/2000/svg">
<g filter="url(#filter0_d_78_1446)">
<rect x="4" width="288" height="82" rx="40" fill="black" shape-rendering="crispEdges"/>
<g filter="url(#filter1_i_78_1446)">
<rect x="12" y="8" width="272" height="66" rx="33" fill="white"/>
<path d="M119.904 35.604L125.936 42.234L124.48 43.456L119.15 37.554C118.058 39.842 116.446 41.896 114.288 43.742L112.832 42.468C116.368 39.4 118.292 35.682 118.656 31.262V29.338H120.71V30.456C120.684 32.276 120.424 33.992 119.904 35.604ZM131.76 50.242H129.706V36.462H124.038V34.694H129.706V26.816H131.76V50.242ZM141.751 31.418C141.751 30.118 142.323 29.052 143.467 28.168C144.585 27.31 146.015 26.868 147.731 26.868C149.447 26.868 150.903 27.31 152.047 28.168C153.191 29.052 153.763 30.118 153.763 31.418C153.763 32.718 153.191 33.81 152.047 34.668C150.903 35.552 149.447 35.968 147.731 35.968C146.015 35.968 144.585 35.552 143.467 34.668C142.323 33.81 141.751 32.718 141.751 31.418ZM143.857 31.418C143.857 32.224 144.221 32.874 144.949 33.394C145.651 33.914 146.587 34.174 147.731 34.174C148.875 34.174 149.837 33.914 150.565 33.394C151.293 32.874 151.657 32.224 151.657 31.418C151.657 30.638 151.293 29.962 150.565 29.442C149.837 28.922 148.875 28.662 147.731 28.662C146.587 28.662 145.651 28.922 144.949 29.442C144.221 29.962 143.857 30.638 143.857 31.418ZM146.665 41.87V39.088H136.707V37.346H158.755V39.088H148.797V41.87H153.763V47.304H143.779V49.41H154.361V51.152H141.673V45.614H151.657V43.586H141.517V41.87H146.665ZM167.761 37.632C168.853 37.632 169.737 37.268 170.439 36.54C171.115 35.838 171.453 34.98 171.453 33.992C171.453 33.004 171.115 32.12 170.439 31.392C169.737 30.664 168.853 30.3 167.761 30.3C166.721 30.3 165.863 30.664 165.187 31.392C164.511 32.12 164.173 33.004 164.173 33.992C164.173 34.98 164.511 35.838 165.187 36.54C165.863 37.268 166.721 37.632 167.761 37.632ZM162.145 33.992C162.145 32.484 162.665 31.184 163.757 30.144C164.823 29.104 166.149 28.584 167.761 28.584C169.373 28.584 170.751 29.104 171.869 30.144C172.961 31.184 173.533 32.484 173.533 33.992C173.533 35.5 172.961 36.774 171.869 37.788C170.751 38.828 169.373 39.348 167.761 39.348C166.149 39.348 164.823 38.828 163.757 37.788C162.665 36.774 162.145 35.5 162.145 33.992ZM178.733 41.22V37.658H174.313V35.89H178.733V31.99H174.313V30.222H178.733V26.816H180.761V41.22H178.733ZM180.501 51.412H178.447V44.34H167.787V42.572H180.501V51.412Z" fill="black"/>
</g>
</g>
<g filter="url(#filter2_d_78_1446)">
<rect x="4" y="150" width="137" height="79" rx="39.5" fill="#00A84D" shape-rendering="crispEdges"/>
<g filter="url(#filter3_i_78_1446)">
<rect x="12" y="158" width="121" height="63" rx="31.5" fill="white"/>
<path d="M39.308 177.552H34.29C32.964 177.552 31.664 177.266 30.416 176.642L30.988 175.16C32.392 175.576 33.614 175.784 34.628 175.784H39.308V177.552ZM43.208 180.724H35.252C34.212 180.724 33.432 180.984 32.86 181.504C32.262 182.024 31.976 182.648 31.976 183.324C31.976 184 32.262 184.52 32.886 184.91C33.484 185.326 34.264 185.534 35.226 185.534C36.214 185.534 36.994 185.326 37.592 184.91C38.164 184.494 38.476 183.974 38.476 183.324C38.476 183.194 38.45 183.012 38.398 182.804C38.32 182.622 38.216 182.466 38.06 182.31L39.672 181.426C39.88 181.634 40.088 181.92 40.27 182.232C40.426 182.596 40.504 182.96 40.504 183.324C40.504 184.52 39.958 185.482 38.918 186.158C38.112 186.704 37.202 187.042 36.214 187.172V189.07H46.224V190.864H24.176V189.07H34.082V187.146C33.12 187.016 32.262 186.678 31.508 186.132C30.468 185.43 29.948 184.494 29.948 183.324C29.948 182.284 30.416 181.426 31.352 180.724H27.166V178.956H43.208V180.724ZM29.402 195.908C29.402 194.764 29.922 193.802 30.962 192.97C32.002 192.19 33.406 191.774 35.226 191.774C37.046 191.774 38.476 192.19 39.542 192.97C40.582 193.802 41.102 194.764 41.102 195.908C41.102 197.052 40.582 198.04 39.542 198.82C38.476 199.652 37.046 200.042 35.226 200.042C33.406 200.042 32.002 199.652 30.962 198.82C29.922 198.04 29.402 197.052 29.402 195.908ZM31.508 195.908C31.508 196.558 31.82 197.13 32.444 197.598C33.068 198.118 33.978 198.352 35.226 198.352C36.474 198.352 37.41 198.118 38.034 197.598C38.632 197.13 38.944 196.558 38.996 195.908C39.022 195.284 38.71 194.712 38.086 194.192C37.41 193.724 36.474 193.464 35.226 193.464C33.978 193.464 33.068 193.724 32.444 194.192C31.82 194.712 31.508 195.284 31.508 195.908ZM59.8842 191.202H50.3942V178.462H59.1562V180.23H52.4222V189.434H59.8842V191.202ZM63.8102 183.766H67.5542V175.316H69.5822V198.742H67.5542V185.56H63.8102V197.182H61.8082V175.836H63.8102V183.766ZM80.6332 185.924C81.6732 185.924 82.5572 185.586 83.2332 184.884C83.8832 184.208 84.2212 183.35 84.2212 182.362C84.2212 181.374 83.8832 180.542 83.2332 179.84C82.5572 179.164 81.6732 178.8 80.6332 178.8C79.5932 178.8 78.7352 179.164 78.0852 179.84C77.4092 180.542 77.0972 181.374 77.0972 182.362C77.0972 183.35 77.4092 184.208 78.0852 184.884C78.7352 185.586 79.5932 185.924 80.6332 185.924ZM75.0172 182.362C75.0172 180.88 75.5372 179.632 76.6292 178.592C77.6952 177.578 79.0212 177.058 80.6332 177.058C82.2452 177.058 83.5972 177.578 84.6892 178.592C85.7552 179.632 86.3012 180.88 86.3012 182.362C86.3012 183.87 85.7552 185.118 84.6892 186.132C83.5972 187.172 82.2452 187.666 80.6332 187.666C79.0212 187.666 77.6952 187.172 76.6292 186.132C75.5372 185.118 75.0172 183.87 75.0172 182.362ZM91.1632 188.836V175.316H93.2172V188.836H91.1632ZM92.9572 199.652H81.0752V189.798H83.1032V192.736H90.9292V189.798H92.9572V199.652ZM90.9292 197.91V194.452H83.1032V197.91H90.9292ZM115.307 176.876C115.307 178.488 115.203 180.126 114.995 181.79C114.787 183.454 114.553 184.884 114.319 186.08H112.213C112.499 184.728 112.733 183.298 112.915 181.842C113.071 180.386 113.149 179.32 113.149 178.644H102.125V176.876H115.307ZM120.195 189.642H109.899V199.262H107.793V189.642H98.147V187.848H120.195V189.642Z" fill="black"/>
</g>
</g>
<g filter="url(#filter4_d_78_1446)">
<rect x="155" y="150" width="137" height="79" rx="39.5" fill="#00A84D" shape-rendering="crispEdges"/>
<g filter="url(#filter5_i_78_1446)">
<rect x="163" y="158" width="121" height="63" rx="31.5" fill="white"/>
<path d="M194.92 176.34H191.724V178.244H198.184V179.417H183.768V178.244H190.33V176.34H186.981V170.968H194.903V172.124H188.375V175.184H194.92V176.34ZM187.066 183.395C187.066 182.511 187.423 181.763 188.171 181.185C188.902 180.624 189.837 180.335 190.976 180.335C192.115 180.335 193.067 180.624 193.815 181.185C194.546 181.763 194.92 182.511 194.92 183.395C194.92 184.296 194.546 185.027 193.815 185.588C193.067 186.166 192.115 186.455 190.976 186.455C189.837 186.455 188.902 186.166 188.171 185.588C187.423 185.027 187.066 184.296 187.066 183.395ZM188.443 183.395C188.443 183.973 188.664 184.415 189.14 184.755C189.599 185.112 190.211 185.282 190.976 185.282C191.741 185.282 192.37 185.112 192.846 184.755C193.305 184.415 193.543 183.973 193.543 183.395C193.543 182.834 193.305 182.375 192.846 182.018C192.37 181.678 191.741 181.508 190.976 181.508C190.211 181.508 189.599 181.678 189.14 182.018C188.664 182.375 188.443 182.834 188.443 183.395ZM207.116 180.709H200.911V172.379H206.64V173.535H202.237V179.553H207.116V180.709ZM209.683 175.847H212.131V170.322H213.457V185.639H212.131V177.02H209.683V184.619H208.374V170.662H209.683V175.847ZM227.857 176.595H219.884V170.968H227.857V176.595ZM226.514 175.439V172.141H221.244V175.439H226.514ZM231.087 179.689H224.831V182.919H223.437V179.689H216.671V178.516H231.087V179.689ZM228.367 186.064H219.918V181.678H221.295V184.908H228.367V186.064ZM236.975 177.394C237.689 177.394 238.267 177.156 238.726 176.68C239.168 176.221 239.389 175.66 239.389 175.014C239.389 174.368 239.168 173.79 238.726 173.314C238.267 172.838 237.689 172.6 236.975 172.6C236.295 172.6 235.734 172.838 235.292 173.314C234.85 173.79 234.629 174.368 234.629 175.014C234.629 175.66 234.85 176.221 235.292 176.68C235.734 177.156 236.295 177.394 236.975 177.394ZM233.303 175.014C233.303 174.028 233.643 173.178 234.357 172.498C235.054 171.818 235.921 171.478 236.975 171.478C238.029 171.478 238.93 171.818 239.661 172.498C240.375 173.178 240.749 174.028 240.749 175.014C240.749 176 240.375 176.833 239.661 177.496C238.93 178.176 238.029 178.516 236.975 178.516C235.921 178.516 235.054 178.176 234.357 177.496C233.643 176.833 233.303 176 233.303 175.014ZM244.149 179.74V177.411H241.259V176.255H244.149V173.705H241.259V172.549H244.149V170.322H245.475V179.74H244.149ZM245.305 186.404H243.962V181.78H236.992V180.624H245.305V186.404ZM253.436 176.068L257.38 180.403L256.428 181.202L252.943 177.343C252.229 178.839 251.175 180.182 249.764 181.389L248.812 180.556C251.124 178.55 252.382 176.119 252.62 173.229V171.971H253.963V172.702C253.946 173.892 253.776 175.014 253.436 176.068ZM263.364 177.394H260.559V185.639H259.216V170.322H260.559V176.153H263.364V177.394ZM202.976 196.595H195.003V190.968H202.976V196.595ZM201.633 195.439V192.141H196.363V195.439H201.633ZM206.206 199.689H199.95V202.919H198.556V199.689H191.79V198.516H206.206V199.689ZM203.486 206.064H195.037V201.678H196.414V204.908H203.486V206.064ZM215.563 192.787H212.35C211.959 192.787 211.585 192.736 211.211 192.617C210.82 192.515 210.48 192.379 210.208 192.209L210.599 191.257C210.956 191.393 211.279 191.495 211.568 191.546C211.84 191.614 212.146 191.631 212.469 191.631H215.563V192.787ZM217.518 195.116H213.353C212.673 195.184 212.146 195.371 211.789 195.694C211.347 196.102 211.143 196.561 211.143 197.105C211.143 197.666 211.313 198.108 211.687 198.431C212.027 198.771 212.486 198.941 213.03 198.941C213.574 198.941 214.033 198.771 214.407 198.431C214.764 198.108 214.951 197.666 214.951 197.105C214.951 196.952 214.9 196.782 214.832 196.595C214.747 196.425 214.645 196.255 214.526 196.119L215.58 195.456C215.784 195.694 215.954 195.949 216.107 196.221C216.243 196.51 216.311 196.799 216.311 197.105C216.311 198.006 215.988 198.72 215.376 199.264C214.9 199.672 214.373 199.927 213.761 200.029V201.423C214.203 201.423 214.73 201.423 215.342 201.389C216.43 201.355 217.416 201.253 218.334 201.066V202.222C217.467 202.409 216.498 202.511 215.444 202.545C214.373 202.579 213.472 202.596 212.724 202.596H208.287V201.44H212.418V200.046C211.755 199.961 211.194 199.706 210.718 199.264C210.089 198.72 209.783 198.006 209.783 197.105C209.783 196.646 209.919 196.204 210.191 195.779C210.361 195.541 210.548 195.32 210.786 195.116H208.576V193.994H217.518V195.116ZM223.077 197.683H220.391V205.639H219.048V190.322H220.391V196.527H223.077V197.683ZM236.147 191.002C236.147 192.158 236.096 193.229 236.011 194.198C235.909 195.184 235.807 196.017 235.671 196.663H234.328C234.43 195.949 234.515 195.167 234.617 194.317C234.702 193.484 234.753 192.77 234.753 192.158H227.698V191.002H236.147ZM224.842 197.989H230.452V194.725H231.863V197.989H239.258V199.162H224.842V197.989ZM228.157 203.344C228.157 202.511 228.514 201.78 229.245 201.151C229.959 200.539 230.894 200.216 232.067 200.216C233.24 200.216 234.192 200.539 234.923 201.151C235.637 201.78 236.011 202.511 236.011 203.344C236.011 204.194 235.637 204.925 234.923 205.537C234.192 206.166 233.24 206.472 232.067 206.472C230.911 206.472 229.959 206.166 229.245 205.537C228.514 204.925 228.157 204.194 228.157 203.344ZM229.534 203.344C229.534 203.854 229.755 204.313 230.214 204.704C230.656 205.112 231.268 205.316 232.067 205.316C232.866 205.316 233.495 205.112 233.954 204.704C234.396 204.313 234.634 203.854 234.634 203.344C234.634 202.834 234.396 202.375 233.954 201.967C233.495 201.576 232.866 201.372 232.067 201.372C231.268 201.372 230.656 201.576 230.214 201.967C229.755 202.375 229.534 202.834 229.534 203.344ZM242.512 193.994C242.495 193.195 242.835 192.515 243.515 191.937C244.178 191.393 245.045 191.104 246.116 191.104C247.187 191.104 248.071 191.393 248.751 191.937C249.414 192.515 249.754 193.195 249.754 193.994C249.754 194.81 249.414 195.49 248.751 196.034C248.071 196.612 247.187 196.884 246.116 196.884C245.045 196.884 244.178 196.612 243.532 196.034C242.852 195.49 242.512 194.81 242.512 193.994ZM243.872 193.994C243.872 194.47 244.059 194.878 244.467 195.218C244.858 195.575 245.402 195.745 246.116 195.745C246.83 195.745 247.391 195.575 247.799 195.218C248.19 194.878 248.394 194.47 248.394 193.994C248.394 193.518 248.19 193.11 247.799 192.753C247.391 192.413 246.83 192.243 246.116 192.243C245.402 192.243 244.858 192.413 244.467 192.753C244.059 193.11 243.872 193.518 243.872 193.994ZM246.558 199.026V201.355H245.198V199.026H241.339V197.87H246.014C246.626 197.87 247.493 197.853 248.581 197.819C249.669 197.785 250.655 197.683 251.573 197.496V198.652C250.706 198.839 249.737 198.941 248.683 198.975C247.884 199.009 247.17 199.026 246.558 199.026ZM252.542 202.919V201.304H248.87V200.165H252.542V190.322H253.885V202.919H252.542ZM253.97 206.064H245.181V202.103H246.558V204.908H253.97V206.064Z" fill="black"/>
</g>
</g>
<g filter="url(#filter6_d_78_1446)">
<rect x="4" y="236" width="137" height="79" rx="39.5" fill="#00A84D" shape-rendering="crispEdges"/>
<g filter="url(#filter7_i_78_1446)">
<rect x="12" y="244" width="121" height="63" rx="31.5" fill="white"/>
<path d="M36.22 263.396C35.544 268.388 32.684 272.652 27.588 276.188L26.21 274.81C30.318 271.898 32.866 268.674 33.802 265.164H26.288V263.396H36.22ZM43.76 278.476H41.706V270.286H35.726V268.492H41.706V261.316H43.76V278.476ZM43.916 285.392H31.306V277.488H33.36V283.624H43.916V285.392ZM59.4447 277.202H49.9547V264.462H58.7167V266.23H51.9827V275.434H59.4447V277.202ZM63.3707 269.766H67.1147V261.316H69.1427V284.742H67.1147V271.56H63.3707V283.182H61.3687V261.836H63.3707V269.766ZM80.1937 271.924C81.2337 271.924 82.1177 271.586 82.7937 270.884C83.4437 270.208 83.7817 269.35 83.7817 268.362C83.7817 267.374 83.4437 266.542 82.7937 265.84C82.1177 265.164 81.2337 264.8 80.1937 264.8C79.1537 264.8 78.2957 265.164 77.6457 265.84C76.9697 266.542 76.6577 267.374 76.6577 268.362C76.6577 269.35 76.9697 270.208 77.6457 270.884C78.2957 271.586 79.1537 271.924 80.1937 271.924ZM74.5777 268.362C74.5777 266.88 75.0977 265.632 76.1897 264.592C77.2557 263.578 78.5817 263.058 80.1937 263.058C81.8057 263.058 83.1577 263.578 84.2497 264.592C85.3157 265.632 85.8617 266.88 85.8617 268.362C85.8617 269.87 85.3157 271.118 84.2497 272.132C83.1577 273.172 81.8057 273.666 80.1937 273.666C78.5817 273.666 77.2557 273.172 76.1897 272.132C75.0977 271.118 74.5777 269.87 74.5777 268.362ZM90.7237 274.836V261.316H92.7777V274.836H90.7237ZM92.5177 285.652H80.6357V275.798H82.6637V278.736H90.4897V275.798H92.5177V285.652ZM90.4897 283.91V280.452H82.6637V283.91H90.4897ZM114.868 262.876C114.868 264.488 114.764 266.126 114.556 267.79C114.348 269.454 114.114 270.884 113.88 272.08H111.774C112.06 270.728 112.294 269.298 112.476 267.842C112.632 266.386 112.71 265.32 112.71 264.644H101.686V262.876H114.868ZM119.756 275.642H109.46V285.262H107.354V275.642H97.7076V273.848H119.756V275.642Z" fill="black"/>
</g>
</g>
<g filter="url(#filter8_d_78_1446)">
<rect x="155" y="236" width="137" height="79" rx="39.5" fill="#00A84D" shape-rendering="crispEdges"/>
<g filter="url(#filter9_i_78_1446)">
<rect x="163" y="244" width="121" height="63" rx="31.5" fill="#001AFF"/>
<path d="M206.904 270.104L212.936 276.734L211.48 277.956L206.15 272.054C205.058 274.342 203.446 276.396 201.288 278.242L199.832 276.968C203.368 273.9 205.292 270.182 205.656 265.762V263.838H207.71V264.956C207.684 266.776 207.424 268.492 206.904 270.104ZM222.088 272.132H217.798V284.742H215.744V261.316H217.798V270.234H222.088V272.132ZM237.903 273.666H226.176V263.11H236.161V264.878H228.23V271.898H237.903V273.666ZM247.107 269.142H242.921V275.746H240.867V261.316H242.921V267.218H247.107V269.142ZM242.817 281.024C242.817 282.376 242.27 283.546 241.231 284.508C240.165 285.496 238.735 285.99 236.966 285.99C235.199 285.99 233.794 285.496 232.754 284.508C231.688 283.546 231.169 282.376 231.169 281.024C231.169 279.672 231.688 278.502 232.754 277.514C233.794 276.552 235.199 276.058 236.966 276.058C238.735 276.058 240.139 276.552 241.231 277.514C242.27 278.502 242.817 279.672 242.817 281.024ZM240.737 281.024C240.737 280.192 240.399 279.438 239.775 278.788C239.099 278.164 238.163 277.826 236.966 277.826C235.77 277.826 234.835 278.164 234.21 278.788C233.56 279.438 233.248 280.192 233.248 281.024C233.248 281.882 233.56 282.636 234.21 283.26C234.835 283.91 235.77 284.222 236.966 284.222C238.163 284.222 239.099 283.91 239.775 283.26C240.399 282.636 240.737 281.882 240.737 281.024Z" fill="#FFEBEB"/>
</g>
</g>
<g filter="url(#filter10_d_78_1446)">
<rect x="4" y="394" width="288" height="82" rx="40" fill="black" shape-rendering="crispEdges"/>
<g filter="url(#filter11_i_78_1446)">
<rect x="12" y="402" width="272" height="66" rx="33" fill="white"/>
<path d="M135.798 422.636C135.122 427.628 132.262 431.892 127.166 435.428L125.788 434.05C129.896 431.138 132.444 427.914 133.38 424.404H125.866V422.636H135.798ZM146.484 429.188H142.298V435.246H140.244V420.816H142.298V427.264H146.484V429.188ZM142.194 440.524C142.194 441.876 141.648 443.046 140.608 444.008C139.542 444.996 138.112 445.49 136.344 445.49C134.576 445.49 133.172 444.996 132.132 444.008C131.066 443.046 130.546 441.876 130.546 440.524C130.546 439.172 131.066 438.002 132.132 437.014C133.172 436.052 134.576 435.558 136.344 435.558C138.112 435.558 139.516 436.052 140.608 437.014C141.648 438.002 142.194 439.172 142.194 440.524ZM140.114 440.524C140.114 439.692 139.776 438.938 139.152 438.288C138.476 437.664 137.54 437.326 136.344 437.326C135.148 437.326 134.212 437.664 133.588 438.288C132.938 438.938 132.626 439.692 132.626 440.524C132.626 441.382 132.938 442.136 133.588 442.76C134.212 443.41 135.148 443.722 136.344 443.722C137.54 443.722 138.476 443.41 139.152 442.76C139.776 442.136 140.114 441.382 140.114 440.524ZM162.324 432.906H150.676V422.454H152.756V431.138H162.324V432.906ZM171.607 428.616H167.421V434.934H165.367V420.816H167.421V426.692H171.607V428.616ZM167.161 445.022H155.278V436.286H167.161V445.022ZM165.133 443.28V438.028H157.307V443.28H165.133Z" fill="black"/>
</g>
</g>
<path d="M143.542 136.333V92.25H151.459V136.333V137.54L152.313 136.687L166.64 122.359L172.237 127.956L153.451 146.742C153.451 146.742 153.451 146.742 153.451 146.742C151.873 148.32 149.733 149.206 147.501 149.206C145.269 149.206 143.129 148.32 141.55 146.742C141.55 146.742 141.55 146.742 141.55 146.742L122.764 127.956L128.361 122.359L142.689 136.687L143.542 137.54V136.333Z" fill="white" stroke="black"/>
<path d="M143.542 372.333V328.25H151.459V372.333V373.54L152.313 372.687L166.64 358.359L172.237 363.956L153.451 382.742C153.451 382.742 153.451 382.742 153.451 382.742C151.873 384.32 149.733 385.206 147.501 385.206C145.269 385.206 143.129 384.32 141.55 382.742C141.55 382.742 141.55 382.742 141.55 382.742L122.764 363.956L128.361 358.359L142.689 372.687L143.542 373.54V372.333Z" fill="white" stroke="black"/>
<defs>
<filter id="filter0_d_78_1446" x="0" y="0" width="296" height="90" filterUnits="userSpaceOnUse" color-interpolation-filters="sRGB">
<feFlood flood-opacity="0" result="BackgroundImageFix"/>
<feColorMatrix in="SourceAlpha" type="matrix" values="0 0 0 0 0 0 0 0 0 0 0 0 0 0 0 0 0 0 127 0" result="hardAlpha"/>
<feOffset dy="4"/>
<feGaussianBlur stdDeviation="2"/>
<feComposite in2="hardAlpha" operator="out"/>
<feColorMatrix type="matrix" values="0 0 0 0 0 0 0 0 0 0 0 0 0 0 0 0 0 0 0.25 0"/>
<feBlend mode="normal" in2="BackgroundImageFix" result="effect1_dropShadow_78_1446"/>
<feBlend mode="normal" in="SourceGraphic" in2="effect1_dropShadow_78_1446" result="shape"/>
</filter>
<filter id="filter1_i_78_1446" x="12" y="8" width="272" height="70" filterUnits="userSpaceOnUse" color-interpolation-filters="sRGB">
<feFlood flood-opacity="0" result="BackgroundImageFix"/>
<feBlend mode="normal" in="SourceGraphic" in2="BackgroundImageFix" result="shape"/>
<feColorMatrix in="SourceAlpha" type="matrix" values="0 0 0 0 0 0 0 0 0 0 0 0 0 0 0 0 0 0 127 0" result="hardAlpha"/>
<feOffset dy="4"/>
<feGaussianBlur stdDeviation="2"/>
<feComposite in2="hardAlpha" operator="arithmetic" k2="-1" k3="1"/>
<feColorMatrix type="matrix" values="0 0 0 0 0 0 0 0 0 0 0 0 0 0 0 0 0 0 0.25 0"/>
<feBlend mode="normal" in2="shape" result="effect1_innerShadow_78_1446"/>
</filter>
<filter id="filter2_d_78_1446" x="0" y="150" width="145" height="87" filterUnits="userSpaceOnUse" color-interpolation-filters="sRGB">
<feFlood flood-opacity="0" result="BackgroundImageFix"/>
<feColorMatrix in="SourceAlpha" type="matrix" values="0 0 0 0 0 0 0 0 0 0 0 0 0 0 0 0 0 0 127 0" result="hardAlpha"/>
<feOffset dy="4"/>
<feGaussianBlur stdDeviation="2"/>
<feComposite in2="hardAlpha" operator="out"/>
<feColorMatrix type="matrix" values="0 0 0 0 0 0 0 0 0 0 0 0 0 0 0 0 0 0 0.25 0"/>
<feBlend mode="normal" in2="BackgroundImageFix" result="effect1_dropShadow_78_1446"/>
<feBlend mode="normal" in="SourceGraphic" in2="effect1_dropShadow_78_1446" result="shape"/>
</filter>
<filter id="filter3_i_78_1446" x="12" y="158" width="121" height="67" filterUnits="userSpaceOnUse" color-interpolation-filters="sRGB">
<feFlood flood-opacity="0" result="BackgroundImageFix"/>
<feBlend mode="normal" in="SourceGraphic" in2="BackgroundImageFix" result="shape"/>
<feColorMatrix in="SourceAlpha" type="matrix" values="0 0 0 0 0 0 0 0 0 0 0 0 0 0 0 0 0 0 127 0" result="hardAlpha"/>
<feOffset dy="4"/>
<feGaussianBlur stdDeviation="2"/>
<feComposite in2="hardAlpha" operator="arithmetic" k2="-1" k3="1"/>
<feColorMatrix type="matrix" values="0 0 0 0 0 0 0 0 0 0 0 0 0 0 0 0 0 0 0.25 0"/>
<feBlend mode="normal" in2="shape" result="effect1_innerShadow_78_1446"/>
</filter>
<filter id="filter4_d_78_1446" x="151" y="150" width="145" height="87" filterUnits="userSpaceOnUse" color-interpolation-filters="sRGB">
<feFlood flood-opacity="0" result="BackgroundImageFix"/>
<feColorMatrix in="SourceAlpha" type="matrix" values="0 0 0 0 0 0 0 0 0 0 0 0 0 0 0 0 0 0 127 0" result="hardAlpha"/>
<feOffset dy="4"/>
<feGaussianBlur stdDeviation="2"/>
<feComposite in2="hardAlpha" operator="out"/>
<feColorMatrix type="matrix" values="0 0 0 0 0 0 0 0 0 0 0 0 0 0 0 0 0 0 0.25 0"/>
<feBlend mode="normal" in2="BackgroundImageFix" result="effect1_dropShadow_78_1446"/>
<feBlend mode="normal" in="SourceGraphic" in2="effect1_dropShadow_78_1446" result="shape"/>
</filter>
<filter id="filter5_i_78_1446" x="163" y="158" width="121" height="67" filterUnits="userSpaceOnUse" color-interpolation-filters="sRGB">
<feFlood flood-opacity="0" result="BackgroundImageFix"/>
<feBlend mode="normal" in="SourceGraphic" in2="BackgroundImageFix" result="shape"/>
<feColorMatrix in="SourceAlpha" type="matrix" values="0 0 0 0 0 0 0 0 0 0 0 0 0 0 0 0 0 0 127 0" result="hardAlpha"/>
<feOffset dy="4"/>
<feGaussianBlur stdDeviation="2"/>
<feComposite in2="hardAlpha" operator="arithmetic" k2="-1" k3="1"/>
<feColorMatrix type="matrix" values="0 0 0 0 0 0 0 0 0 0 0 0 0 0 0 0 0 0 0.25 0"/>
<feBlend mode="normal" in2="shape" result="effect1_innerShadow_78_1446"/>
</filter>
<filter id="filter6_d_78_1446" x="0" y="236" width="145" height="87" filterUnits="userSpaceOnUse" color-interpolation-filters="sRGB">
<feFlood flood-opacity="0" result="BackgroundImageFix"/>
<feColorMatrix in="SourceAlpha" type="matrix" values="0 0 0 0 0 0 0 0 0 0 0 0 0 0 0 0 0 0 127 0" result="hardAlpha"/>
<feOffset dy="4"/>
<feGaussianBlur stdDeviation="2"/>
<feComposite in2="hardAlpha" operator="out"/>
<feColorMatrix type="matrix" values="0 0 0 0 0 0 0 0 0 0 0 0 0 0 0 0 0 0 0.25 0"/>
<feBlend mode="normal" in2="BackgroundImageFix" result="effect1_dropShadow_78_1446"/>
<feBlend mode="normal" in="SourceGraphic" in2="effect1_dropShadow_78_1446" result="shape"/>
</filter>
<filter id="filter7_i_78_1446" x="12" y="244" width="121" height="67" filterUnits="userSpaceOnUse" color-interpolation-filters="sRGB">
<feFlood flood-opacity="0" result="BackgroundImageFix"/>
<feBlend mode="normal" in="SourceGraphic" in2="BackgroundImageFix" result="shape"/>
<feColorMatrix in="SourceAlpha" type="matrix" values="0 0 0 0 0 0 0 0 0 0 0 0 0 0 0 0 0 0 127 0" result="hardAlpha"/>
<feOffset dy="4"/>
<feGaussianBlur stdDeviation="2"/>
<feComposite in2="hardAlpha" operator="arithmetic" k2="-1" k3="1"/>
<feColorMatrix type="matrix" values="0 0 0 0 0 0 0 0 0 0 0 0 0 0 0 0 0 0 0.25 0"/>
<feBlend mode="normal" in2="shape" result="effect1_innerShadow_78_1446"/>
</filter>
<filter id="filter8_d_78_1446" x="151" y="236" width="145" height="87" filterUnits="userSpaceOnUse" color-interpolation-filters="sRGB">
<feFlood flood-opacity="0" result="BackgroundImageFix"/>
<feColorMatrix in="SourceAlpha" type="matrix" values="0 0 0 0 0 0 0 0 0 0 0 0 0 0 0 0 0 0 127 0" result="hardAlpha"/>
<feOffset dy="4"/>
<feGaussianBlur stdDeviation="2"/>
<feComposite in2="hardAlpha" operator="out"/>
<feColorMatrix type="matrix" values="0 0 0 0 0 0 0 0 0 0 0 0 0 0 0 0 0 0 0.25 0"/>
<feBlend mode="normal" in2="BackgroundImageFix" result="effect1_dropShadow_78_1446"/>
<feBlend mode="normal" in="SourceGraphic" in2="effect1_dropShadow_78_1446" result="shape"/>
</filter>
<filter id="filter9_i_78_1446" x="163" y="244" width="121" height="67" filterUnits="userSpaceOnUse" color-interpolation-filters="sRGB">
<feFlood flood-opacity="0" result="BackgroundImageFix"/>
<feBlend mode="normal" in="SourceGraphic" in2="BackgroundImageFix" result="shape"/>
<feColorMatrix in="SourceAlpha" type="matrix" values="0 0 0 0 0 0 0 0 0 0 0 0 0 0 0 0 0 0 127 0" result="hardAlpha"/>
<feOffset dy="4"/>
<feGaussianBlur stdDeviation="2"/>
<feComposite in2="hardAlpha" operator="arithmetic" k2="-1" k3="1"/>
<feColorMatrix type="matrix" values="0 0 0 0 0 0 0 0 0 0 0 0 0 0 0 0 0 0 0.25 0"/>
<feBlend mode="normal" in2="shape" result="effect1_innerShadow_78_1446"/>
</filter>
<filter id="filter10_d_78_1446" x="0" y="394" width="296" height="90" filterUnits="userSpaceOnUse" color-interpolation-filters="sRGB">
<feFlood flood-opacity="0" result="BackgroundImageFix"/>
<feColorMatrix in="SourceAlpha" type="matrix" values="0 0 0 0 0 0 0 0 0 0 0 0 0 0 0 0 0 0 127 0" result="hardAlpha"/>
<feOffset dy="4"/>
<feGaussianBlur stdDeviation="2"/>
<feComposite in2="hardAlpha" operator="out"/>
<feColorMatrix type="matrix" values="0 0 0 0 0 0 0 0 0 0 0 0 0 0 0 0 0 0 0.25 0"/>
<feBlend mode="normal" in2="BackgroundImageFix" result="effect1_dropShadow_78_1446"/>
<feBlend mode="normal" in="SourceGraphic" in2="effect1_dropShadow_78_1446" result="shape"/>
</filter>
<filter id="filter11_i_78_1446" x="12" y="402" width="272" height="70" filterUnits="userSpaceOnUse" color-interpolation-filters="sRGB">
<feFlood flood-opacity="0" result="BackgroundImageFix"/>
<feBlend mode="normal" in="SourceGraphic" in2="BackgroundImageFix" result="shape"/>
<feColorMatrix in="SourceAlpha" type="matrix" values="0 0 0 0 0 0 0 0 0 0 0 0 0 0 0 0 0 0 127 0" result="hardAlpha"/>
<feOffset dy="4"/>
<feGaussianBlur stdDeviation="2"/>
<feComposite in2="hardAlpha" operator="arithmetic" k2="-1" k3="1"/>
<feColorMatrix type="matrix" values="0 0 0 0 0 0 0 0 0 0 0 0 0 0 0 0 0 0 0.25 0"/>
<feBlend mode="normal" in2="shape" result="effect1_innerShadow_78_1446"/>
</filter>
</defs>
</svg>
