<svg width="32" height="37" viewBox="0 0 32 37" fill="none" xmlns="http://www.w3.org/2000/svg">
<path d="M27.8018 20.7316L27.8032 20.7302C28.0045 20.5291 28.2442 20.3693 28.5087 20.2601C28.7731 20.1509 29.0569 20.0947 29.3437 20.0947C29.6305 20.0947 29.9143 20.1509 30.1788 20.2601C30.4427 20.3691 30.6821 20.5285 30.8831 20.7291C31.2828 21.1336 31.504 21.6774 31.4999 22.2415C31.4959 22.8061 31.2666 23.3472 30.8605 23.7462L30.8594 23.7473L19.3895 35.0851L19.388 35.0866C18.4925 35.9793 17.2774 36.4875 16.0053 36.5C14.7248 36.4937 13.4999 35.985 12.5985 35.0866L12.5971 35.0851L1.12863 23.7487C1.12836 23.7484 1.12808 23.7482 1.12781 23.7479C0.725151 23.3461 0.5 22.8039 0.5 22.2396C0.5 21.675 0.72546 21.1324 1.12863 20.7306L1.12903 20.7302C1.33031 20.5291 1.57003 20.3693 1.83448 20.2601C2.09894 20.1509 2.38277 20.0947 2.66953 20.0947C2.9563 20.0947 3.24012 20.1509 3.50458 20.2601C3.76904 20.3693 4.00875 20.5291 4.21003 20.7302L4.21148 20.7316L12.9873 29.4266L13.8392 30.2707V29.0714V2.64286C13.8392 2.07604 14.0664 1.53149 14.4724 1.12926C14.8785 0.726878 15.4303 0.5 16.0066 0.5C16.5829 0.5 17.1347 0.726878 17.5409 1.12926C17.9468 1.53149 18.174 2.07604 18.174 2.64286V29.0714V30.2707L19.026 29.4266L27.8018 20.7316Z" fill="black" stroke="white"/>
</svg>
